# Blender v2.79 (sub 0) OBJ File: ''
# www.blender.org
mtllib Worker.mtl
o Grid
v -0.727451 0.149478 0.241100
v -0.333334 0.136773 0.241098
v -0.111112 0.136928 0.241100
v 0.111112 0.137253 0.241100
v 0.333335 0.144235 0.241098
v 0.727166 0.127276 0.241100
v -0.623056 0.246927 0.241100
v -0.373834 0.246927 0.241101
v -0.124611 0.246927 0.241101
v 0.124611 0.246927 0.241101
v 0.373834 0.246927 0.241101
v 0.623056 0.246927 0.241100
v -0.519035 0.411034 0.241099
v -0.333334 0.411034 0.241101
v -0.111111 0.411034 0.241101
v 0.111111 0.411034 0.241101
v 0.333334 0.411034 0.241101
v 0.519035 0.411034 0.241099
v -0.471804 0.486108 0.241099
v -0.333334 0.486108 0.241101
v -0.111111 0.486108 0.241101
v 0.111111 0.486108 0.241101
v 0.333334 0.486108 0.241101
v 0.471804 0.486108 0.241099
v -0.362515 0.581440 0.241099
v -0.333334 0.581440 0.241101
v -0.111111 0.581440 0.241101
v 0.111111 0.581440 0.241101
v 0.333334 0.581440 0.241101
v 0.405253 0.581440 0.241099
v -0.491046 0.673395 0.241099
v -0.333334 0.673395 0.241101
v -0.111111 0.673395 0.241101
v 0.111111 0.673395 0.241101
v 0.333334 0.673395 0.241101
v 0.459119 0.673395 0.241099
v 0.555552 1.108739 -0.233611
v 0.333334 1.108742 -0.233612
v 0.111111 1.108742 -0.233612
v -0.111111 1.108742 -0.233612
v -0.491046 0.765350 0.241099
v -0.333334 0.765351 0.241101
v -0.111111 0.765351 0.241101
v 0.111111 0.765351 0.241101
v 0.333334 0.765351 0.241101
v 0.459119 0.765350 0.241099
v -0.301013 1.108741 -0.233612
v -0.421012 1.030666 -0.233612
v 0.459119 0.939132 -0.233612
v 0.333334 0.939133 -0.233614
v -0.491046 0.850553 0.241099
v -0.333334 0.850553 0.241101
v -0.111111 0.850553 0.241101
v 0.111111 0.850553 0.241101
v 0.333334 0.850553 0.241101
v 0.459119 0.850553 0.241099
v 0.111111 0.939133 -0.233614
v -0.111111 0.939133 -0.233614
v -0.333334 0.939133 -0.233614
v -0.491045 0.939132 -0.233612
v -0.491045 0.939132 0.241100
v -0.333334 0.939133 0.241101
v -0.111111 0.939133 0.241101
v 0.111111 0.939133 0.241101
v 0.333334 0.939133 0.241101
v 0.459119 0.939132 0.241099
v 0.459119 0.850553 -0.233612
v 0.333334 0.850553 -0.233614
v 0.111111 0.850553 -0.233614
v -0.111111 0.850553 -0.233614
v -0.421012 1.030666 0.241100
v -0.301013 1.108741 0.241099
v -0.111111 1.108742 0.241099
v 0.111111 1.108742 0.241099
v 0.333334 1.108742 0.241099
v 0.555552 1.108739 0.241098
v -0.333334 0.850553 -0.233614
v -0.491046 0.850553 -0.233612
v 0.459119 0.765350 -0.233612
v 0.333334 0.765351 -0.233614
v 0.111111 0.765351 -0.233614
v -0.111111 0.765351 -0.233614
v -0.333334 0.765351 -0.233614
v -0.491046 0.765350 -0.233612
v 0.459119 0.673395 -0.233612
v 0.333334 0.673395 -0.233614
v 0.111111 0.673395 -0.233614
v -0.111111 0.673395 -0.233614
v -0.333334 0.673395 -0.233614
v -0.491046 0.673395 -0.233612
v 0.405253 0.581440 -0.233612
v 0.333334 0.581440 -0.233614
v 0.111111 0.581440 -0.233614
v -0.111111 0.581440 -0.233614
v -0.333334 0.581440 -0.233614
v -0.362515 0.581440 -0.233612
v 0.471804 0.486108 -0.233612
v 0.333334 0.486108 -0.233614
v 0.111111 0.486108 -0.233614
v -0.111111 0.486108 -0.233614
v -0.333334 0.486108 -0.233614
v -0.471804 0.486108 -0.233612
v 0.519035 0.411034 -0.233612
v 0.333334 0.411034 -0.233614
v 0.111111 0.411034 -0.233614
v -0.111111 0.411034 -0.233614
v -0.333334 0.411034 -0.233614
v -0.519035 0.411034 -0.233612
v 0.623056 0.246927 -0.233613
v 0.329259 0.246927 -0.233614
v 0.108412 0.246927 -0.233614
v -0.112458 0.246927 -0.233614
v -0.329266 0.246927 -0.233614
v -0.623056 0.246927 -0.233613
v 0.727166 0.127276 -0.233612
v 0.333335 0.144235 -0.233611
v 0.111112 0.137253 -0.233613
v -0.111112 0.136928 -0.233613
v -0.333334 0.136773 -0.233611
v -0.727451 0.149478 -0.233613
v -0.277779 0.036773 0.241098
v -0.166667 0.036928 0.241100
v 0.166667 0.037253 0.241100
v 0.277779 0.044235 0.241098
v -0.277779 0.036773 -0.233611
v 0.277779 0.044235 -0.233611
v 0.166667 0.037253 -0.233613
v -0.166667 0.036928 -0.233613
vn 0.0000 -0.0000 1.0000
vn 0.0000 0.0000 -1.0000
vn -0.6824 0.7310 0.0000
vn 0.8742 -0.4856 0.0000
vn 0.8693 -0.4943 0.0000
vn 0.7544 0.6564 0.0000
vn 0.8200 0.5724 0.0000
vn 0.0000 1.0000 0.0000
vn 1.0000 -0.0000 0.0000
vn -0.6573 0.7536 0.0000
vn -0.8742 -0.4856 0.0000
vn -1.0000 0.0000 0.0000
vn 0.0015 -1.0000 0.0000
vn -0.5454 0.8382 0.0000
vn 0.8464 0.5325 0.0000
vn -0.8446 0.5354 0.0000
vn -0.5819 -0.8133 0.0000
vn -0.8464 0.5325 0.0000
vn -0.0430 -0.9991 0.0000
vn -0.0322 -0.9995 0.0000
vn 0.8446 0.5354 0.0000
vn -0.7942 0.6077 0.0000
vn 0.8629 -0.5054 0.0000
vn 0.0627 -0.9980 0.0000
vn 0.0014 -1.0000 0.0000
usemtl None
s off
f 1//1 2//1 8//1 7//1
f 2//1 3//1 9//1 8//1
f 3//1 4//1 10//1 9//1
f 4//1 5//1 11//1 10//1
f 5//1 6//1 12//1 11//1
f 80//2 68//2 67//2 79//2
f 7//3 114//3 120//3 1//3
f 7//1 8//1 14//1 13//1
f 8//1 9//1 15//1 14//1
f 9//1 10//1 16//1 15//1
f 10//1 11//1 17//1 16//1
f 11//1 12//1 18//1 17//1
f 81//2 69//2 68//2 80//2
f 102//2 96//2 95//2 101//2
f 13//1 14//1 20//1 19//1
f 14//1 15//1 21//1 20//1
f 15//1 16//1 22//1 21//1
f 16//1 17//1 23//1 22//1
f 17//1 18//1 24//1 23//1
f 82//2 70//2 69//2 81//2
f 116//4 5//4 124//4 126//4
f 19//1 20//1 26//1 25//1
f 20//1 21//1 27//1 26//1
f 21//1 22//1 28//1 27//1
f 22//1 23//1 29//1 28//1
f 23//1 24//1 30//1 29//1
f 66//5 49//5 37//5 76//5
f 89//2 83//2 82//2 88//2
f 94//2 88//2 87//2 93//2
f 6//6 115//6 109//6 12//6
f 25//1 26//1 32//1 31//1
f 26//1 27//1 33//1 32//1
f 27//1 28//1 34//1 33//1
f 28//1 29//1 35//1 34//1
f 29//1 30//1 36//1 35//1
f 105//2 99//2 98//2 104//2
f 60//2 48//2 47//2 59//2
f 87//2 81//2 80//2 86//2
f 70//2 58//2 57//2 69//2
f 31//1 32//1 42//1 41//1
f 32//1 33//1 43//1 42//1
f 33//1 34//1 44//1 43//1
f 34//1 35//1 45//1 44//1
f 35//1 36//1 46//1 45//1
f 24//7 97//7 91//7 30//7
f 92//2 86//2 85//2 91//2
f 74//8 39//8 40//8 73//8
f 100//2 94//2 93//2 99//2
f 41//1 42//1 52//1 51//1
f 42//1 43//1 53//1 52//1
f 43//1 44//1 54//1 53//1
f 44//1 45//1 55//1 54//1
f 45//1 46//1 56//1 55//1
f 36//9 85//9 79//9 46//9
f 25//10 96//10 102//10 19//10
f 96//2 90//2 89//2 95//2
f 2//11 119//11 125//11 121//11
f 51//1 52//1 62//1 61//1
f 52//1 53//1 63//1 62//1
f 53//1 54//1 64//1 63//1
f 54//1 55//1 65//1 64//1
f 55//1 56//1 66//1 65//1
f 106//2 100//2 99//2 105//2
f 84//2 78//2 77//2 83//2
f 56//9 67//9 49//9 66//9
f 68//2 50//2 49//2 67//2
f 61//1 62//1 72//1 71//1
f 62//1 63//1 73//1 72//1
f 63//1 64//1 74//1 73//1
f 64//1 65//1 75//1 74//1
f 65//1 66//1 76//1 75//1
f 57//2 39//2 38//2 50//2
f 98//2 92//2 91//2 97//2
f 86//2 80//2 79//2 85//2
f 69//2 57//2 50//2 68//2
f 58//2 40//2 39//2 57//2
f 73//8 40//8 47//8 72//8
f 61//12 60//12 78//12 51//12
f 75//8 38//8 39//8 74//8
f 76//8 37//8 38//8 75//8
f 46//9 79//9 67//9 56//9
f 78//2 60//2 59//2 77//2
f 95//2 89//2 88//2 94//2
f 116//2 110//2 109//2 115//2
f 114//2 108//2 107//2 113//2
f 50//2 38//2 37//2 49//2
f 3//13 118//13 117//13 4//13
f 113//2 107//2 106//2 112//2
f 112//2 106//2 105//2 111//2
f 83//2 77//2 70//2 82//2
f 90//2 84//2 83//2 89//2
f 110//2 104//2 103//2 109//2
f 111//2 105//2 104//2 110//2
f 72//14 47//14 48//14 71//14
f 51//12 78//12 84//12 41//12
f 118//2 112//2 111//2 117//2
f 120//2 114//2 113//2 119//2
f 101//2 95//2 94//2 100//2
f 104//2 98//2 97//2 103//2
f 119//2 113//2 112//2 118//2
f 117//2 111//2 110//2 116//2
f 18//15 103//15 97//15 24//15
f 13//16 108//16 114//16 7//16
f 108//2 102//2 101//2 107//2
f 107//2 101//2 100//2 106//2
f 93//2 87//2 86//2 92//2
f 88//2 82//2 81//2 87//2
f 77//2 59//2 58//2 70//2
f 59//2 47//2 40//2 58//2
f 31//17 90//17 96//17 25//17
f 19//18 102//18 108//18 13//18
f 5//19 116//19 115//19 6//19
f 1//20 120//20 119//20 2//20
f 41//12 84//12 90//12 31//12
f 99//2 93//2 92//2 98//2
f 12//21 109//21 103//21 18//21
f 71//22 48//22 60//22 61//22
f 30//23 91//23 85//23 36//23
f 123//24 127//24 126//24 124//24
f 121//25 125//25 128//25 122//25
f 4//11 117//11 127//11 123//11
f 5//1 4//1 123//1 124//1
f 117//2 116//2 126//2 127//2
f 119//2 118//2 128//2 125//2
f 118//4 3//4 122//4 128//4
f 3//1 2//1 121//1 122//1
